<?xml version="1.0" encoding="iso-8859-1"?>
<!-- Generator: Adobe Illustrator 16.0.0, SVG Export Plug-In . SVG Version: 6.00 Build 0)  -->
<!DOCTYPE svg PUBLIC "-//W3C//DTD SVG 1.1//EN" "http://www.w3.org/Graphics/SVG/1.1/DTD/svg11.dtd">
<svg version="1.1" id="Capa_1" xmlns="http://www.w3.org/2000/svg" xmlns:xlink="http://www.w3.org/1999/xlink" x="0px" y="0px"
	 viewBox="0 0 530.965 530.965" style="enable-background:new 0 0 530.965 530.965;"
	 xml:space="preserve">
<g class="icon-in-separate-file">
	<path d="M517.586,252.104h-41.039c-6.506-44.167-44.555-78.224-90.506-78.224c-43.012,0-79.098,29.85-88.887,69.89l-24.928-14.554
		c-4.168-2.43-9.322-2.43-13.489,0l-24.929,14.554c-9.788-40.04-45.874-69.89-88.886-69.89c-45.952,0-84,34.057-90.506,78.224
		h-41.04C5.989,252.104,0,258.101,0,265.481c0,7.394,5.989,13.377,13.377,13.377h41.04c6.509,44.17,44.554,78.228,90.506,78.228
		c47.836,0,87.161-36.879,91.194-83.688l29.366-17.141l29.365,17.141c4.033,46.81,43.357,83.688,91.193,83.688
		c45.951,0,83.996-34.058,90.506-78.228h41.039c7.389,0,13.379-5.983,13.379-13.377
		C530.965,258.101,524.975,252.104,517.586,252.104z M144.924,330.332c-35.756,0-64.842-29.095-64.842-64.851
		c0-35.755,29.086-64.848,64.842-64.848s64.842,29.092,64.842,64.848C209.766,301.237,180.68,330.332,144.924,330.332z
		 M386.041,330.332c-35.754,0-64.842-29.095-64.842-64.851c0-35.755,29.088-64.848,64.842-64.848
		c35.758,0,64.844,29.092,64.844,64.848C450.883,301.237,421.797,330.332,386.041,330.332z"/>
</g>
</svg>
